<?xml version="1.0" encoding="UTF-8"?>
<svg width="197px" height="155px" viewBox="0 0 197 155" version="1.1" xmlns="http://www.w3.org/2000/svg" xmlns:xlink="http://www.w3.org/1999/xlink">
    <!-- Generator: Sketch 48.2 (47327) - http://www.bohemiancoding.com/sketch -->
    <title>blanket</title>
    <desc>Created with Sketch.</desc>
    <defs></defs>
    <g id="Donator" stroke="none" stroke-width="1" fill="none" fill-rule="evenodd" transform="translate(-190.000000, -649.000000)" stroke-linecap="round" stroke-linejoin="round">
        <g id="blanket" transform="translate(192.000000, 651.000000)" stroke="#FFAF2F" stroke-width="3">
            <path d="M173.788918,72.7188467 C173.788918,72.7188467 119.986881,84.9862166 93.739418,89.664287 C70.924284,93.731502 69.7636679,79.8364729 69.7636679,79.8364729 C69.3767958,67.9740848 79.95233,67.5304413 85.2323597,66.279734 C102.247508,62.2502143 151.693882,53.8567507 167.742366,49.2821004 C183.79085,44.7064835 181.959656,34.1759923 179.150449,31.3188898 C173.227696,25.2934577 154.561893,12.4046004 136.03227,3.35678683 C121.775777,-3.60425932 89.1320299,2.4202062 89.1320299,2.4202062 L30.2655796,15.219175 C30.2655796,15.219175 2.0363003,17.2527825 0.489843777,37.2496006 C-1.0576444,57.2454521 1.05931943,64.2267957 6.87065336,71.1414478 C18.5087961,84.9910493 59.6565068,115.541556 65.8433645,116.557393 C72.0312539,117.574197 72.8039663,122.997472 105.982113,113.389063 L172.593226,97.2062258 C172.593226,97.2062258 193.898011,92.7146983 187.952562,71.024496 C184.806002,59.5400263 176.222601,52.0850765 159.207453,51.4075295" id="Stroke-1"></path>
            <path d="M165,99 C168,98 187.994784,91.5905873 192.45358,110.224566 C195.409562,122.582162 186.136177,126.331953 170.351977,130.269185 L118.350274,142.866396 C72.9897055,155.400805 72.2139929,149.980468 66.0113952,148.964034 C59.8077631,147.948566 18.5553681,117.40917 6.88761664,103.564605 C1.06253231,96.6524671 -1.05981731,89.6736624 0.490573566,69.6850824 C0.685018853,67.1865099 1.29628037,64.9681331 2.21886119,63" id="Stroke-3"></path>
            <path d="M90,3 L139.798905,32.6466044 C145.049622,35.7721275 148.605718,40.6144191 149.649605,46.0592211 L150,53" id="Stroke-5"></path>
            <path d="M67,8 L116.797862,37.6657005 C122.049622,40.7932367 125.605718,45.6386473 126.649605,51.0869565 L126.649605,56" id="Stroke-7"></path>
        </g>
    </g>
</svg>