<?xml version="1.0" encoding="UTF-8"?>
<svg width="208px" height="124px" viewBox="0 0 208 124" version="1.1" xmlns="http://www.w3.org/2000/svg" xmlns:xlink="http://www.w3.org/1999/xlink">
    <!-- Generator: Sketch 48.2 (47327) - http://www.bohemiancoding.com/sketch -->
    <title>dog food</title>
    <desc>Created with Sketch.</desc>
    <defs></defs>
    <g id="Donator" stroke="none" stroke-width="1" fill="none" fill-rule="evenodd" transform="translate(-616.000000, -664.000000)">
        <g id="dog-food" transform="translate(617.000000, 666.000000)">
            <g id="Group-4" transform="translate(0.000000, 40.101000)">
                <path d="M194.5882,0.1768 L205.1662,42.8278 C205.1662,63.0808 159.3512,79.4998 102.8332,79.4998 C46.3162,79.4998 0.5002,63.0808 0.5002,42.8278 L11.0782,0.1768" id="Fill-1" fill="#FFFFFF"></path>
                <path d="M194.5882,0.1768 L205.1662,42.8278 C205.1662,63.0808 159.3512,79.4998 102.8332,79.4998 C46.3162,79.4998 0.5002,63.0808 0.5002,42.8278 L11.0782,0.1768" id="Stroke-3" stroke="#898989" stroke-width="3" stroke-linecap="round" stroke-linejoin="round"></path>
            </g>
            <path d="M194.5882,40.2778 C194.5882,57.8048 153.5082,72.0128 102.8332,72.0128 C52.1582,72.0128 11.0782,57.8048 11.0782,40.2778 C11.0782,22.7518 52.1582,8.5438 102.8332,8.5438 C153.5082,8.5438 194.5882,22.7518 194.5882,40.2778" id="Fill-5" fill="#FFFFFF"></path>
            <path d="M194.5882,40.2778 C194.5882,57.8048 153.5082,72.0128 102.8332,72.0128 C52.1582,72.0128 11.0782,57.8048 11.0782,40.2778 C11.0782,22.7518 52.1582,8.5438 102.8332,8.5438 C153.5082,8.5438 194.5882,22.7518 194.5882,40.2778 Z" id="Stroke-7" stroke="#898989" stroke-width="3" stroke-linecap="round" stroke-linejoin="round"></path>
            <path d="M126.0003,106.3716 C122.5653,106.3716 119.5763,103.9336 118.8913,100.5746 C118.7483,99.8766 118.1343,99.3746 117.4213,99.3746 L88.2453,99.3746 C87.5323,99.3746 86.9183,99.8766 86.7753,100.5746 C86.0903,103.9336 83.1013,106.3716 79.6663,106.3716 C75.6653,106.3716 72.4093,103.1156 72.4093,99.1146 C72.4093,97.2886 73.0993,95.5396 74.3513,94.1886 C74.8843,93.6136 74.8833,92.7256 74.3503,92.1496 C73.0993,90.8006 72.4093,89.0516 72.4093,87.2246 C72.4093,83.2236 75.6653,79.9676 79.6663,79.9676 C83.1013,79.9676 86.0903,82.4046 86.7753,85.7646 C86.9183,86.4626 87.5323,86.9646 88.2453,86.9646 L117.4213,86.9646 C118.1343,86.9646 118.7483,86.4626 118.8913,85.7646 C119.5763,82.4046 122.5653,79.9676 126.0003,79.9676 C130.0013,79.9676 133.2573,83.2236 133.2573,87.2246 C133.2573,89.0516 132.5673,90.8006 131.3163,92.1496 C130.7833,92.7256 130.7823,93.6136 131.3153,94.1886 C132.5673,95.5396 133.2573,97.2886 133.2573,99.1146 C133.2573,103.1156 130.0013,106.3716 126.0003,106.3716" id="Fill-9" fill="#FFFFFF"></path>
            <path d="M126.0003,78.4673 C121.7673,78.4673 118.2353,81.4713 117.4213,85.4643 L88.2453,85.4643 C87.4313,81.4713 83.8993,78.4673 79.6663,78.4673 C74.8293,78.4673 70.9093,82.3883 70.9093,87.2243 C70.9093,89.5223 71.8023,91.6073 73.2503,93.1693 C71.8023,94.7323 70.9093,96.8173 70.9093,99.1143 C70.9093,103.9513 74.8293,107.8713 79.6663,107.8713 C83.8993,107.8713 87.4313,104.8673 88.2453,100.8743 L117.4213,100.8743 C118.2353,104.8673 121.7673,107.8713 126.0003,107.8713 C130.8373,107.8713 134.7573,103.9513 134.7573,99.1143 C134.7573,96.8173 133.8643,94.7323 132.4163,93.1693 C133.8643,91.6073 134.7573,89.5223 134.7573,87.2243 C134.7573,82.3883 130.8373,78.4673 126.0003,78.4673 M126.0003,81.4673 C129.1753,81.4673 131.7573,84.0493 131.7573,87.2243 C131.7573,88.6713 131.2103,90.0583 130.2163,91.1293 C129.1493,92.2803 129.1493,94.0583 130.2163,95.2093 C131.2103,96.2803 131.7573,97.6683 131.7573,99.1143 C131.7573,102.2893 129.1753,104.8713 126.0003,104.8713 C123.2753,104.8713 120.9033,102.9393 120.3603,100.2753 C120.0753,98.8783 118.8473,97.8743 117.4213,97.8743 L88.2453,97.8743 C86.8193,97.8743 85.5913,98.8783 85.3063,100.2753 C84.7633,102.9393 82.3913,104.8713 79.6663,104.8713 C76.4913,104.8713 73.9093,102.2893 73.9093,99.1143 C73.9093,97.6683 74.4563,96.2803 75.4503,95.2093 C76.5173,94.0583 76.5173,92.2803 75.4503,91.1293 C74.4563,90.0583 73.9093,88.6713 73.9093,87.2243 C73.9093,84.0493 76.4913,81.4673 79.6663,81.4673 C82.3913,81.4673 84.7633,83.4013 85.3063,86.0643 C85.5913,87.4603 86.8193,88.4643 88.2453,88.4643 L117.4213,88.4643 C118.8473,88.4643 120.0753,87.4603 120.3603,86.0643 C120.9033,83.4013 123.2753,81.4673 126.0003,81.4673" id="Fill-11" fill="#898989"></path>
            <path d="M102.8333,61.314 C60.1763,61.314 31.5213,49.723 31.5213,38.898 C31.5213,28.073 60.1763,16.482 102.8333,16.482 C145.4903,16.482 174.1453,28.073 174.1453,38.898 C174.1453,49.723 145.4903,61.314 102.8333,61.314" id="Fill-13" fill="#FFFFFF"></path>
            <path d="M102.8333,14.9819 C62.6203,14.9819 30.0213,25.6899 30.0213,38.8979 C30.0213,52.1069 62.6203,62.8139 102.8333,62.8139 C143.0463,62.8139 175.6453,52.1069 175.6453,38.8979 C175.6453,25.6899 143.0463,14.9819 102.8333,14.9819 M102.8333,17.9819 C121.9723,17.9819 139.9253,20.4169 153.3833,24.8369 C165.4443,28.7989 172.6453,34.0549 172.6453,38.8979 C172.6453,43.7409 165.4443,48.9979 153.3833,52.9599 C139.9253,57.3789 121.9733,59.8139 102.8333,59.8139 C83.6933,59.8139 65.7413,57.3789 52.2833,52.9599 C40.2223,48.9979 33.0213,43.7409 33.0213,38.8979 C33.0213,34.0549 40.2223,28.7989 52.2833,24.8369 C65.7413,20.4169 83.6943,17.9819 102.8333,17.9819" id="Fill-15" fill="#898989"></path>
            <g id="Group-20" transform="translate(34.000000, 0.101000)">
                <path d="M0.7415,44.0421 C0.7415,44.0421 7.3835,29.6561 17.3795,30.8061 C17.3795,30.8061 18.8335,11.0351 42.8335,9.8681 C42.8335,9.8681 52.1665,-5.4649 68.8335,5.4421 C68.8335,5.4421 84.8335,-8.7149 97.9955,10.4101 C97.9955,10.4101 120.3335,12.2851 122.2575,31.8231 C122.2575,31.8231 135.7965,32.7701 138.2115,42.4281" id="Fill-17" fill="#FFFFFF"></path>
                <path d="M0.7415,44.0421 C0.7415,44.0421 7.3835,29.6561 17.3795,30.8061 C17.3795,30.8061 18.8335,11.0351 42.8335,9.8681 C42.8335,9.8681 52.1665,-5.4649 68.8335,5.4421 C68.8335,5.4421 84.8335,-8.7149 97.9955,10.4101 C97.9955,10.4101 120.3335,12.2851 122.2575,31.8231 C122.2575,31.8231 135.7965,32.7701 138.2115,42.4281" id="Stroke-19" stroke="#898989" stroke-width="3" stroke-linecap="round" stroke-linejoin="round"></path>
            </g>
        </g>
    </g>
</svg>