<?xml version="1.0" encoding="UTF-8"?>
<svg width="174px" height="161px" viewBox="0 0 174 161" version="1.1" xmlns="http://www.w3.org/2000/svg" xmlns:xlink="http://www.w3.org/1999/xlink">
    <!-- Generator: Sketch 48.2 (47327) - http://www.bohemiancoding.com/sketch -->
    <title>etc</title>
    <desc>Created with Sketch.</desc>
    <defs></defs>
    <g id="Donator" stroke="none" stroke-width="1" fill="none" fill-rule="evenodd" transform="translate(-1061.000000, -646.000000)">
        <g id="etc" transform="translate(1062.000000, 647.000000)">
            <path d="M168.2345,72.6707 C173.0235,66.7747 171.8185,57.8617 165.5435,52.7657 C160.0495,48.3047 152.4925,48.2457 147.4815,52.2557 L109.6245,21.5087 C112.5205,15.7817 110.9135,8.3977 105.4205,3.9357 C99.1445,-1.1603 90.1745,-0.5123 85.3855,5.3857 C83.1095,8.1877 82.2035,11.6707 82.5355,15.1027 C79.1085,15.4807 75.8855,17.0827 73.6095,19.8847 C68.8205,25.7817 70.0255,34.6937 76.3005,39.7907 C81.7945,44.2517 89.3505,44.3107 94.3625,40.3007 L132.2195,71.0467 C129.3235,76.7747 130.9305,84.1587 136.4235,88.6197 C142.6995,93.7167 151.6695,93.0677 156.4585,87.1707 C158.7345,84.3677 159.6405,80.8857 159.3085,77.4537 C162.7355,77.0757 165.9585,75.4737 168.2345,72.6707" id="Fill-1" fill="#FFFFFF"></path>
            <path d="M168.2345,72.6707 C173.0235,66.7747 171.8185,57.8617 165.5435,52.7657 C160.0495,48.3047 152.4925,48.2457 147.4815,52.2557 L109.6245,21.5087 C112.5205,15.7817 110.9135,8.3977 105.4205,3.9357 C99.1445,-1.1603 90.1745,-0.5123 85.3855,5.3857 C83.1095,8.1877 82.2035,11.6707 82.5355,15.1027 C79.1085,15.4807 75.8855,17.0827 73.6095,19.8847 C68.8205,25.7817 70.0255,34.6937 76.3005,39.7907 C81.7945,44.2517 89.3505,44.3107 94.3625,40.3007 L132.2195,71.0467 C129.3235,76.7747 130.9305,84.1587 136.4235,88.6197 C142.6995,93.7167 151.6695,93.0677 156.4585,87.1707 C158.7345,84.3677 159.6405,80.8857 159.3085,77.4537 C162.7355,77.0757 165.9585,75.4737 168.2345,72.6707 Z" id="Stroke-3" stroke="#898989" stroke-width="3" stroke-linecap="round" stroke-linejoin="round"></path>
            <path d="M98.2735,84.367 C110.4095,109.999 99.4675,140.616 73.8365,152.752 C48.2045,164.888 17.5865,153.947 5.4515,128.315 C-6.6845,102.682 4.2555,72.065 29.8875,59.93 C55.5205,47.794 86.1375,58.734 98.2735,84.367" id="Fill-5" fill="#FFFFFF"></path>
            <path d="M98.2735,84.367 C110.4095,109.999 99.4675,140.616 73.8365,152.752 C48.2045,164.888 17.5865,153.947 5.4515,128.315 C-6.6845,102.682 4.2555,72.065 29.8875,59.93 C55.5205,47.794 86.1375,58.734 98.2735,84.367 Z" id="Stroke-7" stroke="#898989" stroke-width="3" stroke-linecap="round" stroke-linejoin="round"></path>
            <g id="Group-12" transform="translate(66.000000, 57.203000)">
                <path d="M34.1759,66.5263 C23.0699,62.0103 12.8579,52.4383 6.6379,39.3003 C0.4179,26.1643 -0.5141,12.1993 3.0309,0.7453" id="Fill-9" fill="#FFFFFF"></path>
                <path d="M34.1759,66.5263 C23.0699,62.0103 12.8579,52.4383 6.6379,39.3003 C0.4179,26.1643 -0.5141,12.1993 3.0309,0.7453" id="Stroke-11" stroke="#898989" stroke-width="3" stroke-linecap="round" stroke-linejoin="round"></path>
            </g>
            <g id="Group-16" transform="translate(3.000000, 88.203000)">
                <path d="M0.5489,0.7489 C11.6549,5.2649 21.8659,14.8379 28.0869,27.9749 C34.3069,41.1109 35.2389,55.0769 31.6939,66.5299" id="Fill-13" fill="#FFFFFF"></path>
                <path d="M0.5489,0.7489 C11.6549,5.2649 21.8659,14.8379 28.0869,27.9749 C34.3069,41.1109 35.2389,55.0769 31.6939,66.5299" id="Stroke-15" stroke="#898989" stroke-width="3" stroke-linecap="round" stroke-linejoin="round"></path>
            </g>
        </g>
    </g>
</svg>